<?xml version="1.0" standalone="no"?><!DOCTYPE svg PUBLIC "-//W3C//DTD SVG 1.1//EN" "http://www.w3.org/Graphics/SVG/1.1/DTD/svg11.dtd"><svg t="1781796162447" class="icon" viewBox="0 0 1024 1024" version="1.1" xmlns="http://www.w3.org/2000/svg" p-id="17875" xmlns:xlink="http://www.w3.org/1999/xlink" width="200" height="200"><path d="M654.222222 114.033778c0 31.374222-25.514667 56.888889-56.888889 56.888889s-56.888889-25.514667-56.888889-56.888889 25.514667-56.888889 56.888889-56.888889 56.888889 25.514667 56.888889 56.888889z m-512 682.666666v-220.785777c20.366222 13.653333 44.8 21.674667 71.111111 21.674666 39.537778 0 74.467556-18.375111 97.962667-46.620444l174.108444 245.731555H142.222222z m0 142.222223v-85.333334h369.777778v85.333334H142.222222z m17.265778-515.271111l15.502222-13.767112c11.093333-7.139556 24.206222-11.406222 38.343111-11.406222 39.224889 0 71.111111 31.914667 71.111111 71.111111s-31.886222 71.111111-71.111111 71.111111a71.196444 71.196444 0 0 1-71.111111-71.111111c0-17.607111 6.656-33.507556 17.265778-45.937777z m397.511111-203.576889l-215.751111 248.860444c-0.284444-58.794667-40.590222-107.861333-94.890667-122.481778l239.189334-212.650666a113.692444 113.692444 0 0 0 71.452444 86.272zM798.691556 8.846222a28.444444 28.444444 0 0 0-20.366223-8.590222h-217.201777a28.017778 28.017778 0 0 0-8.874667 1.792L550.456889 0 138.268444 366.392889a128 128 0 0 0-18.432 16.412444l-2.474666 2.190223 0.341333 0.398222a126.976 126.976 0 0 0-29.724444 58.282666 28.273778 28.273778 0 0 0-2.645334 11.690667v512a28.444444 28.444444 0 0 0 28.444445 28.444445h426.666666a28.444444 28.444444 0 0 0 28.444445-28.444445v-142.222222c0-0.256-0.142222-0.483556-0.142222-0.768a28.672 28.672 0 0 0-1.934223-9.614222c-0.312889-0.768-0.768-1.393778-1.109333-2.133334-0.682667-1.308444-1.194667-2.702222-2.076444-3.925333l-198.656-280.32 245.418666-283.050667 117.361778 90.339556a28.302222 28.302222 0 0 0 37.489778-2.446222l79.786667-79.957334a28.444444 28.444444 0 1 0-40.277334-40.192L742.627556 275.342222l-84.821334-65.308444A113.521778 113.521778 0 0 0 711.111111 114.033778a112.355556 112.355556 0 0 0-15.843555-56.888889h71.054222l102.599111 105.187555a28.359111 28.359111 0 0 0 40.220444 0.512 28.444444 28.444444 0 0 0 0.483556-40.220444l-110.933333-113.777778z" fill="#13227a" p-id="17876"></path></svg>