<?xml version="1.0" standalone="no"?><!DOCTYPE svg PUBLIC "-//W3C//DTD SVG 1.1//EN" "http://www.w3.org/Graphics/SVG/1.1/DTD/svg11.dtd"><svg t="1781794530174" class="icon" viewBox="0 0 1024 1024" version="1.1" xmlns="http://www.w3.org/2000/svg" p-id="9005" xmlns:xlink="http://www.w3.org/1999/xlink" width="200" height="200"><path d="M204.8 204.8h614.4c18.816 0 34.112 15.296 34.112 34.176v546.112a34.112 34.112 0 0 1-34.112 34.112H614.4c0-23.232-1.792-46.016-5.248-68.224h175.936V273.088H238.912v107.584a447.104 447.104 0 0 0-68.224-5.184V238.976c0-18.88 15.232-34.176 34.112-34.176z m341.312 614.4H477.888a307.2 307.2 0 0 0-307.2-307.2V443.776A375.488 375.488 0 0 1 546.112 819.2z m-136.512 0H341.312a170.688 170.688 0 0 0-170.624-170.624V580.288A238.912 238.912 0 0 1 409.6 819.2z m-136.512 0h-76.8a25.6 25.6 0 0 1-25.6-25.6v-76.8a102.4 102.4 0 0 1 102.4 102.4z" p-id="9006" fill="#ffffff"></path></svg>