<?xml version="1.0" standalone="no"?><!DOCTYPE svg PUBLIC "-//W3C//DTD SVG 1.1//EN" "http://www.w3.org/Graphics/SVG/1.1/DTD/svg11.dtd"><svg t="1781794998371" class="icon" viewBox="0 0 1025 1024" version="1.1" xmlns="http://www.w3.org/2000/svg" p-id="12244" xmlns:xlink="http://www.w3.org/1999/xlink" width="200.1953125" height="200"><path d="M979.287327 0.000013H42.457006A42.457006 42.457006 0 0 0 0 42.443672v172.630907a40.134617 40.134617 0 0 0 40.134617 40.134618H986.347923c25.279336 0 38.706481-24.104795 38.706482-49.384132V45.753744A45.740383 45.740383 0 0 0 979.287327 0.000013zM940.96791 169.787996H85.4212v-85.4212h855.54671z m-643.515274 170.842401H45.767078C20.487741 340.630397 0 359.916902 0 383.714715v597.214314c0 23.784465 20.487741 43.070971 45.75373 43.070971h251.698906c25.265989 0 45.75373-19.286505 45.753731-43.070971V383.701368c0-23.797813-20.474394-43.070971-45.753731-43.070971z m-41.189035 597.948403H85.4212v-511.192496h170.842401z m722.997032-597.948403H471.751926c-24.62533 0-44.645924 19.286505-44.645924 43.084318v597.214314c0 23.784465 20.020594 43.070971 44.645924 43.070971h507.628831c24.652025 0 44.645924-19.286505 44.645924-43.084318V383.701368c-0.120124-23.797813-20.100676-43.070971-44.766048-43.070971zM512.527202 938.5788v-511.192496h427.106002v511.192496z m442.735412 16.790604" p-id="12245" fill="#ffffff"></path></svg>